<?xml version="1.0" standalone="no"?>
<!DOCTYPE svg PUBLIC "-//W3C//DTD SVG 20010904//EN"
 "http://www.w3.org/TR/2001/REC-SVG-20010904/DTD/svg10.dtd">
<svg version="1.0" xmlns="http://www.w3.org/2000/svg"
 width="700.000000pt" height="700.000000pt" viewBox="0 0 700.000000 700.000000"
 preserveAspectRatio="xMidYMid meet">
<metadata>
Created by potrace 1.14, written by Peter Selinger 2001-2017
</metadata>
<g transform="translate(0.000000,700.000000) scale(0.100000,-0.100000)"
fill="#000000" stroke="none">
<path d="M3922 6228 c-126 -13 -244 -49 -367 -110 -269 -134 -475 -382 -560
-673 -30 -104 -35 -137 -40 -275 -19 -523 348 -990 865 -1100 l85 -19 -477 0
-478 -1 0 -220 0 -220 -54 0 -54 0 -1 -220 0 -220 54 0 55 0 0 -217 0 -218
-55 1 c-46 1 -55 -2 -55 -16 0 -15 -6 -16 -42 -9 -107 21 -280 27 -428 16
-190 -16 -275 -41 -546 -161 -78 -35 -168 -59 -179 -48 -3 3 -5 28 -5 56 l0
51 -166 0 -166 -1 4 53 c2 29 1 54 -2 54 -20 5 -964 3 -972 -2 -9 -6 -18
-2054 -8 -2068 7 -10 974 -10 980 0 3 4 5 78 4 163 l-1 156 61 1 c34 0 107 0
164 -1 l102 -1 1 48 c1 26 1 51 0 55 0 5 75 8 168 8 l169 0 254 -71 c508 -142
684 -191 733 -204 28 -7 214 -59 415 -116 330 -92 375 -103 468 -107 166 -7
194 1 562 173 91 42 192 89 225 105 33 16 257 121 498 233 240 112 448 212
461 223 13 10 41 35 63 55 21 19 85 77 143 129 58 52 110 99 116 104 6 6 44
40 84 76 40 36 78 70 84 76 6 5 36 32 66 59 30 26 98 87 150 135 52 47 118
106 145 131 28 24 52 46 55 49 3 3 45 41 94 85 98 87 116 118 112 186 -4 58
-25 101 -84 175 -109 135 -264 174 -451 113 -108 -35 -334 -180 -531 -342
-184 -151 -331 -255 -418 -295 -80 -36 -82 -33 -82 113 l0 125 -55 0 -54 0 1
215 0 215 54 0 54 0 0 223 0 223 -54 -2 -54 -2 1 217 2 216 53 3 52 3 0 219 0
220 -479 -3 c-264 -1 -477 1 -474 6 2 4 16 7 31 7 34 0 159 34 232 62 316 125
565 405 655 738 32 118 43 307 26 431 -62 438 -380 797 -805 908 -131 34 -266
44 -404 29z m1000 -4392 c2 -12 1 -36 -1 -53 l-3 -33 -927 0 -927 0 2 53 c1
28 2 52 3 53 0 0 417 0 926 0 l924 1 3 -21z"/>
</g>
</svg>
