<?xml version="1.0" ?><svg id="Layer_1" style="enable-background:new 0 0 595.3 595.3;" version="1.1" viewBox="0 0 595.3 595.3" xml:space="preserve" xmlns="http://www.w3.org/2000/svg" xmlns:xlink="http://www.w3.org/1999/xlink"><style type="text/css">
	.st0{fill:#58595B;}
	.st1{fill:#3A1811;}
	.st2{fill:#726658;}
	.st3{fill:#0DB4E7;}
	.st4{fill:#009DD4;}
	.st5{fill:#009444;}
	.st6{fill:#FBB040;}
	.st7{fill:#EFF8F5;}
	.st8{fill:#D81F26;}
	.st9{fill:#BCBEC0;}
	.st10{fill:#735032;}
	.st11{fill:#1C75BC;}
	.st12{fill:#FFD128;}
	.st13{fill:#D1AE23;}
	.st14{fill:#F9ED32;}
	.st15{fill:#939598;}
	.st16{fill:#9B8579;}
	.st17{fill:#F1B279;}
	.st18{fill:#603913;}
	.st19{fill:#754C29;}
	.st20{fill:#8B5E3C;}
	.st21{fill:#C49A6C;}
	.st22{fill:#F7941E;}
	.st23{fill:#00AEEF;}
	.st24{fill:#FAF5AE;}
	.st25{fill:#F5F7D5;}
	.st26{fill:#7ABE90;}
	.st27{fill:#BFA863;}
	.st28{fill:#2B3990;}
	.st29{fill:#EF3824;}
	.st30{fill:#BE1E2D;}
	.st31{fill:#A67A44;}
	.st32{fill:#00A388;}
	.st33{fill:#ABE0F1;}
	.st34{fill:#594A42;}
</style><g><g><path class="st14" d="M434.7,223.9c0-75.6-61.2-136.9-136.4-136.4c-74,0.5-134.3,61.5-134.5,135.9c-0.1,34.2,12.3,65.5,32.9,89.5    c11.1,13,20.5,27.3,28.4,42.5c10.8,20.9,23.4,48.6,27.3,70.9c1.3,7.4,7.8,12.8,15.3,12.8h31.6h31.6c7.5,0,14-5.4,15.3-12.8    c4-22.8,17-51.1,28-72.1c7.7-14.8,17-28.7,27.8-41.4C422.4,288.9,434.7,257.9,434.7,223.9z"/><path class="st1" d="M330.8,444.2h-63.1c-10,0-18.5-7.1-20.3-17c-3.9-22.1-16.7-50-26.8-69.4c-8.1-15.5-17.4-29.5-27.7-41.6    c-22.1-25.8-34.2-58.7-34.1-92.8c0.2-77.2,62.8-140.4,139.5-140.9c37.5-0.3,72.9,14.2,99.6,40.7c27,26.8,41.8,62.5,41.8,100.7    c0,33.8-12.1,66.6-34,92.2c-10.3,12-19.4,25.7-27.2,40.5c-10.4,19.8-23.5,48.2-27.5,70.7C349.4,437,340.9,444.2,330.8,444.2z     M299.3,92.5c-0.3,0-0.6,0-0.9,0c-71.2,0.5-129.3,59.3-129.5,131c-0.1,31.7,11.2,62.3,31.7,86.2c10.8,12.6,20.6,27.3,29,43.5    c10.4,20.1,23.7,48.9,27.8,72.3c0.9,5,5.3,8.7,10.4,8.7h63.1c5.1,0,9.5-3.7,10.4-8.7c4.2-23.7,17.8-53.1,28.5-73.6    c8.1-15.5,17.7-29.7,28.4-42.3c20.4-23.8,31.6-54.2,31.6-85.7c0-35.4-13.8-68.7-38.9-93.6C366.3,105.9,333.8,92.5,299.3,92.5z"/></g><g><path class="st15" d="M260.4,464.3h77.7c6.9,0,12.6-5.6,12.6-12.6v0c0-6.9-5.6-12.6-12.6-12.6h-77.7c-6.9,0-12.6,5.6-12.6,12.6v0    C247.8,458.7,253.5,464.3,260.4,464.3z"/><path class="st1" d="M338.2,469.3h-77.7c-9.7,0-17.6-7.9-17.6-17.6c0-9.7,7.9-17.6,17.6-17.6h77.7c9.7,0,17.6,7.9,17.6,17.6    C355.7,461.4,347.8,469.3,338.2,469.3z M260.4,444.2c-4.2,0-7.6,3.4-7.6,7.6c0,4.2,3.4,7.6,7.6,7.6h77.7c4.2,0,7.6-3.4,7.6-7.6    c0-4.2-3.4-7.6-7.6-7.6H260.4z"/></g><g><path class="st15" d="M266.2,489.5h66.2c6.9,0,12.6-5.6,12.6-12.6l0,0c0-6.9-5.6-12.6-12.6-12.6h-66.2c-6.9,0-12.6,5.6-12.6,12.6    l0,0C253.6,483.8,259.2,489.5,266.2,489.5z"/><path class="st1" d="M332.4,494.5h-66.2c-9.7,0-17.6-7.9-17.6-17.6s7.9-17.6,17.6-17.6h66.2c9.7,0,17.6,7.9,17.6,17.6    S342.1,494.5,332.4,494.5z M266.2,469.3c-4.2,0-7.6,3.4-7.6,7.6s3.4,7.6,7.6,7.6h66.2c4.2,0,7.6-3.4,7.6-7.6s-3.4-7.6-7.6-7.6    H266.2z"/></g><g><path class="st16" d="M299.3,489.5L299.3,489.5h-33.2l12.9,31c1.1,2.7,3.8,4.5,6.7,4.5h13.6h13.6c2.9,0,5.6-1.8,6.7-4.5l12.9-31    H299.3z"/><path class="st1" d="M312.9,530h-27.2c-5,0-9.4-3-11.3-7.6l-15.8-38H340l-15.8,38C322.3,527,317.8,530,312.9,530z M273.6,494.5    l10,24.1c0.4,0.9,1.2,1.4,2.1,1.4h27.2c0.9,0,1.7-0.6,2.1-1.4l10-24.1H273.6z"/></g><g><path class="st1" d="M324.5,444.2H274v-68.1c0-29.1-8.7-57.5-25.2-82.1l-0.1-0.2l-7.2-12c-1.2-2.1-1.2-4.6,0.1-6.6    c1.3-2.1,3.7-3.2,6.1-2.9c6.4,0.7,10.3,3.6,13.4,5.9c3.2,2.4,5.5,4.1,10.7,4.1c5.2,0,7.5-1.7,10.7-4.1c3.6-2.7,8.2-6,16.7-6    c8.5,0,13,3.3,16.7,6c3.2,2.4,5.5,4.1,10.7,4.1s7.5-1.7,10.7-4.1c3.1-2.3,7-5.1,13.4-5.9c2.5-0.3,4.8,0.8,6.1,2.9    c1.3,2,1.3,4.6,0.1,6.6l-7.3,12.2c-16.5,24.7-25.2,53.1-25.2,82.1V444.2z M284,434.2h30.5v-58.1c0-31,9.3-61.3,26.8-87.6l1-1.7    c-3.5,2.5-7.9,5.3-15.7,5.3c-8.5,0-13-3.3-16.7-6c-3.2-2.4-5.5-4.1-10.7-4.1c-5.2,0-7.5,1.7-10.7,4.1c-3.6,2.7-8.2,6-16.7,6    c-7.8,0-12.2-2.8-15.7-5.3l1,1.7c17.5,26.3,26.8,56.6,26.8,87.6V434.2z M250.1,276.6L250.1,276.6    C250.1,276.6,250.1,276.6,250.1,276.6z"/></g><g><path class="st1" d="M359.7,254.9c-0.6,0-1.3-0.2-1.8-0.7c-1-1-1-2.6,0-3.5l28-28.2c1-1,2.6-1,3.5,0c1,1,1,2.6,0,3.5l-28,28.2    C360.9,254.6,360.3,254.9,359.7,254.9z"/></g><g><path class="st1" d="M238.9,254.9c-0.6,0-1.3-0.2-1.8-0.7l-28-28.2c-1-1-1-2.6,0-3.5c1-1,2.6-1,3.5,0l28,28.2c1,1,1,2.6,0,3.5    C240.2,254.6,239.5,254.9,238.9,254.9z"/></g><g><path class="st1" d="M299.3,248.6c-1.4,0-2.5-1.1-2.5-2.5v-45.5c0-1.4,1.1-2.5,2.5-2.5s2.5,1.1,2.5,2.5v45.5    C301.8,247.5,300.7,248.6,299.3,248.6z"/></g><g><path class="st1" d="M412.1,263.7c-0.2,0-0.5,0-0.7-0.1c-1.3-0.4-2.1-1.8-1.6-3.1c7.4-23.7,8.2-49.2,2.3-71.8    c-5.3-16.1-13.2-30.3-23.5-42.1c-0.9-1-0.8-2.6,0.3-3.5c1-0.9,2.6-0.8,3.5,0.3c10.7,12.4,19,27.2,24.5,43.9l0,0.1    c6.2,23.6,5.4,50.1-2.3,74.7C414.2,263,413.2,263.7,412.1,263.7z"/></g><g><path class="st1" d="M361.8,123.5c-0.4,0-0.9-0.1-1.3-0.4c-30.7-18.4-62.2-19-62.5-19c-1.4,0-2.5-1.1-2.5-2.5    c0-1.4,1.1-2.5,2.5-2.5c0,0,0,0,0,0c1.3,0,33.2,0.6,65,19.8c1.2,0.7,1.6,2.2,0.9,3.4C363.5,123,362.6,123.5,361.8,123.5z"/></g><g><path class="st1" d="M361.8,352c-0.3,0-0.5,0-0.8-0.1c-1.3-0.4-2-1.8-1.6-3.1c3.9-12.3,24.4-40.6,25.3-41.8    c0.8-1.1,2.4-1.4,3.5-0.6c1.1,0.8,1.4,2.4,0.6,3.5c-0.2,0.3-20.9,28.9-24.5,40.4C363.8,351.3,362.8,352,361.8,352z"/></g><g><path class="st1" d="M335.9,419.5c-0.1,0-0.2,0-0.3,0c-1.4-0.2-2.4-1.4-2.2-2.8c1.7-14.5,13.4-41.3,13.9-42.4    c0.6-1.3,2-1.8,3.3-1.3c1.3,0.6,1.8,2,1.3,3.3c-0.1,0.3-11.9,27.2-13.5,41C338.3,418.5,337.2,419.5,335.9,419.5z"/></g><g><path class="st1" d="M335.9,455.5h-36.6c-1.4,0-2.5-1.1-2.5-2.5s1.1-2.5,2.5-2.5h36.6c1.4,0,2.5,1.1,2.5,2.5    S337.3,455.5,335.9,455.5z"/></g><g><path class="st1" d="M330.9,479.4h-31.6c-1.4,0-2.5-1.1-2.5-2.5s1.1-2.5,2.5-2.5h31.6c1.4,0,2.5,1.1,2.5,2.5    S332.3,479.4,330.9,479.4z"/></g><g><path class="st1" d="M311.6,517.2h-12.3c-1.4,0-2.5-1.1-2.5-2.5s1.1-2.5,2.5-2.5h8.9l4.6-11.2c0.5-1.3,2-1.9,3.3-1.4    c1.3,0.5,1.9,2,1.4,3.3L311.6,517.2z"/></g></g></svg>